<svg width="456" height="456" viewBox="0 0 456 456" fill="none" xmlns="http://www.w3.org/2000/svg">
<path d="M197.2 163.299C190.289 163.299 183.661 166.338 178.775 171.747C173.888 177.156 171.143 184.492 171.143 192.142C171.143 199.791 173.888 207.127 178.775 212.536C183.661 217.945 190.289 220.984 197.2 220.984C204.111 220.984 210.738 217.945 215.625 212.536C220.512 207.127 223.257 199.791 223.257 192.142C223.257 184.492 220.512 177.156 215.625 171.747C210.738 166.338 204.111 163.299 197.2 163.299ZM184.171 192.142C184.171 188.317 185.544 184.649 187.987 181.944C190.431 179.24 193.744 177.72 197.2 177.72C200.655 177.72 203.969 179.24 206.412 181.944C208.856 184.649 210.228 188.317 210.228 192.142C210.228 195.966 208.856 199.635 206.412 202.339C203.969 205.044 200.655 206.563 197.2 206.563C193.744 206.563 190.431 205.044 187.987 202.339C185.544 199.635 184.171 195.966 184.171 192.142ZM123.371 156.089C123.371 150.351 125.43 144.849 129.095 140.793C132.76 136.736 137.731 134.457 142.914 134.457H251.485C254.052 134.457 256.593 135.016 258.964 136.103C261.335 137.19 263.49 138.784 265.304 140.793C267.119 142.801 268.558 145.186 269.541 147.81C270.523 150.435 271.028 153.248 271.028 156.089V201.756H258V177.72H251.485C246.302 177.72 241.332 175.441 237.667 171.385C234.002 167.328 231.943 161.826 231.943 156.089V148.878H162.457V156.089C162.457 161.826 160.398 167.328 156.733 171.385C153.068 175.441 148.097 177.72 142.914 177.72H136.4V206.563H142.914C148.097 206.563 153.068 208.842 156.733 212.899C160.398 216.956 162.457 222.458 162.457 228.195V235.406H227.6V249.827H142.914C137.731 249.827 132.76 247.548 129.095 243.491C125.43 239.434 123.371 233.932 123.371 228.195V156.089ZM142.914 148.878C141.187 148.878 139.53 149.638 138.308 150.99C137.086 152.342 136.4 154.176 136.4 156.089V163.299H142.914C144.642 163.299 146.299 162.54 147.52 161.187C148.742 159.835 149.428 158.001 149.428 156.089V148.878H142.914ZM258 163.299V156.089C258 154.176 257.313 152.342 256.092 150.99C254.87 149.638 253.213 148.878 251.485 148.878H244.971V156.089C244.971 160.069 247.89 163.299 251.485 163.299H258ZM136.4 228.195C136.4 232.175 139.318 235.406 142.914 235.406H149.428V228.195C149.428 226.283 148.742 224.448 147.52 223.096C146.299 221.744 144.642 220.984 142.914 220.984H136.4V228.195ZM144.226 264.248H227.6V278.669H166.8C157.159 278.669 148.734 272.872 144.226 264.248ZM297.085 201.756V182.528C297.085 171.856 291.848 162.53 284.057 157.54V201.756H297.085ZM249.314 211.37C245.859 211.37 242.545 212.889 240.101 215.594C237.658 218.298 236.285 221.967 236.285 225.791V302.705C236.285 306.529 237.658 310.198 240.101 312.902C242.545 315.607 245.859 317.126 249.314 317.126H292.742C296.198 317.126 299.512 315.607 301.955 312.902C304.398 310.198 305.771 306.529 305.771 302.705V225.791C305.771 221.967 304.398 218.298 301.955 215.594C299.512 212.889 296.198 211.37 292.742 211.37H249.314ZM253.657 254.634H262.343C263.494 254.634 264.599 255.14 265.413 256.042C266.228 256.943 266.685 258.166 266.685 259.441C266.685 260.716 266.228 261.939 265.413 262.84C264.599 263.742 263.494 264.248 262.343 264.248H253.657C252.505 264.248 251.4 263.742 250.586 262.84C249.772 261.939 249.314 260.716 249.314 259.441C249.314 258.166 249.772 256.943 250.586 256.042C251.4 255.14 252.505 254.634 253.657 254.634ZM279.714 254.634H288.4C289.551 254.634 290.656 255.14 291.47 256.042C292.285 256.943 292.742 258.166 292.742 259.441C292.742 260.716 292.285 261.939 291.47 262.84C290.656 263.742 289.551 264.248 288.4 264.248H279.714C278.562 264.248 277.457 263.742 276.643 262.84C275.829 261.939 275.371 260.716 275.371 259.441C275.371 258.166 275.829 256.943 276.643 256.042C277.457 255.14 278.562 254.634 279.714 254.634ZM253.657 273.862H262.343C263.494 273.862 264.599 274.369 265.413 275.27C266.228 276.172 266.685 277.394 266.685 278.669C266.685 279.944 266.228 281.167 265.413 282.068C264.599 282.97 263.494 283.476 262.343 283.476H253.657C252.505 283.476 251.4 282.97 250.586 282.068C249.772 281.167 249.314 279.944 249.314 278.669C249.314 277.394 249.772 276.172 250.586 275.27C251.4 274.369 252.505 273.862 253.657 273.862ZM279.714 273.862H288.4C289.551 273.862 290.656 274.369 291.47 275.27C292.285 276.172 292.742 277.394 292.742 278.669C292.742 279.944 292.285 281.167 291.47 282.068C290.656 282.97 289.551 283.476 288.4 283.476H279.714C278.562 283.476 277.457 282.97 276.643 282.068C275.829 281.167 275.371 279.944 275.371 278.669C275.371 277.394 275.829 276.172 276.643 275.27C277.457 274.369 278.562 273.862 279.714 273.862ZM253.657 293.091H262.343C263.494 293.091 264.599 293.597 265.413 294.499C266.228 295.4 266.685 296.623 266.685 297.898C266.685 299.173 266.228 300.395 265.413 301.297C264.599 302.198 263.494 302.705 262.343 302.705H253.657C252.505 302.705 251.4 302.198 250.586 301.297C249.772 300.395 249.314 299.173 249.314 297.898C249.314 296.623 249.772 295.4 250.586 294.499C251.4 293.597 252.505 293.091 253.657 293.091ZM279.714 293.091H288.4C289.551 293.091 290.656 293.597 291.47 294.499C292.285 295.4 292.742 296.623 292.742 297.898C292.742 299.173 292.285 300.395 291.47 301.297C290.656 302.198 289.551 302.705 288.4 302.705H279.714C278.562 302.705 277.457 302.198 276.643 301.297C275.829 300.395 275.371 299.173 275.371 297.898C275.371 296.623 275.829 295.4 276.643 294.499C277.457 293.597 278.562 293.091 279.714 293.091ZM249.314 230.598C249.314 229.324 249.772 228.101 250.586 227.199C251.4 226.298 252.505 225.791 253.657 225.791H288.4C289.551 225.791 290.656 226.298 291.47 227.199C292.285 228.101 292.742 229.324 292.742 230.598V240.213C292.742 241.488 292.285 242.71 291.47 243.612C290.656 244.513 289.551 245.02 288.4 245.02H253.657C252.505 245.02 251.4 244.513 250.586 243.612C249.772 242.71 249.314 241.488 249.314 240.213V230.598Z" fill="white"/>
<path d="M130.603 338.396H126.87C126.802 337.913 126.662 337.484 126.452 337.109C126.242 336.729 125.972 336.405 125.642 336.138C125.313 335.871 124.932 335.666 124.5 335.524C124.074 335.382 123.611 335.311 123.111 335.311C122.208 335.311 121.421 335.536 120.75 335.984C120.08 336.428 119.56 337.075 119.191 337.928C118.821 338.774 118.637 339.803 118.637 341.013C118.637 342.257 118.821 343.303 119.191 344.149C119.566 344.996 120.088 345.635 120.759 346.067C121.429 346.499 122.205 346.715 123.086 346.715C123.58 346.715 124.037 346.649 124.458 346.519C124.884 346.388 125.262 346.198 125.591 345.948C125.921 345.692 126.194 345.382 126.409 345.019C126.631 344.655 126.784 344.24 126.87 343.774L130.603 343.791C130.506 344.592 130.265 345.365 129.878 346.109C129.498 346.848 128.983 347.51 128.336 348.095C127.694 348.675 126.927 349.135 126.034 349.476C125.148 349.811 124.145 349.979 123.026 349.979C121.469 349.979 120.077 349.627 118.85 348.922C117.628 348.217 116.662 347.198 115.952 345.862C115.248 344.527 114.895 342.911 114.895 341.013C114.895 339.109 115.253 337.49 115.969 336.155C116.685 334.82 117.657 333.803 118.884 333.104C120.111 332.399 121.492 332.047 123.026 332.047C124.037 332.047 124.975 332.189 125.838 332.473C126.708 332.757 127.478 333.172 128.148 333.717C128.819 334.257 129.364 334.919 129.784 335.703C130.211 336.487 130.483 337.385 130.603 338.396ZM139.096 349.996C137.772 349.996 136.627 349.715 135.661 349.152C134.701 348.584 133.959 347.794 133.436 346.783C132.914 345.766 132.652 344.587 132.652 343.246C132.652 341.894 132.914 340.712 133.436 339.7C133.959 338.683 134.701 337.894 135.661 337.331C136.627 336.763 137.772 336.479 139.096 336.479C140.419 336.479 141.561 336.763 142.522 337.331C143.488 337.894 144.232 338.683 144.755 339.7C145.277 340.712 145.539 341.894 145.539 343.246C145.539 344.587 145.277 345.766 144.755 346.783C144.232 347.794 143.488 348.584 142.522 349.152C141.561 349.715 140.419 349.996 139.096 349.996ZM139.113 347.183C139.715 347.183 140.218 347.013 140.621 346.672C141.025 346.325 141.328 345.854 141.533 345.257C141.743 344.661 141.848 343.982 141.848 343.22C141.848 342.459 141.743 341.78 141.533 341.183C141.328 340.587 141.025 340.115 140.621 339.769C140.218 339.422 139.715 339.249 139.113 339.249C138.505 339.249 137.993 339.422 137.578 339.769C137.169 340.115 136.86 340.587 136.65 341.183C136.445 341.78 136.343 342.459 136.343 343.22C136.343 343.982 136.445 344.661 136.65 345.257C136.86 345.854 137.169 346.325 137.578 346.672C137.993 347.013 138.505 347.183 139.113 347.183ZM151.53 342.172V349.74H147.9V336.649H151.36V338.959H151.513C151.803 338.198 152.289 337.595 152.971 337.152C153.652 336.703 154.479 336.479 155.451 336.479C156.36 336.479 157.152 336.678 157.828 337.075C158.505 337.473 159.03 338.041 159.405 338.78C159.78 339.513 159.968 340.388 159.968 341.405V349.74H156.337V342.053C156.343 341.252 156.138 340.627 155.723 340.178C155.309 339.723 154.738 339.496 154.01 339.496C153.522 339.496 153.09 339.601 152.715 339.811C152.346 340.021 152.056 340.328 151.846 340.732C151.641 341.129 151.536 341.609 151.53 342.172ZM169.792 336.649V339.377H161.909V336.649H169.792ZM163.699 333.513H167.329V345.717C167.329 346.053 167.38 346.314 167.483 346.502C167.585 346.683 167.727 346.811 167.909 346.885C168.096 346.959 168.312 346.996 168.556 346.996C168.727 346.996 168.897 346.982 169.068 346.953C169.238 346.919 169.369 346.894 169.46 346.877L170.031 349.578C169.849 349.635 169.593 349.7 169.264 349.774C168.934 349.854 168.534 349.902 168.062 349.919C167.187 349.953 166.42 349.837 165.761 349.57C165.108 349.303 164.599 348.888 164.235 348.325C163.872 347.763 163.693 347.053 163.699 346.195V333.513ZM172.157 349.74V336.649H175.677V338.933H175.814C176.052 338.121 176.453 337.507 177.015 337.092C177.578 336.672 178.226 336.462 178.958 336.462C179.14 336.462 179.336 336.473 179.547 336.496C179.757 336.519 179.941 336.55 180.101 336.59V339.811C179.93 339.76 179.694 339.715 179.393 339.675C179.092 339.635 178.816 339.615 178.566 339.615C178.032 339.615 177.555 339.732 177.135 339.965C176.72 340.192 176.39 340.51 176.146 340.919C175.907 341.328 175.788 341.8 175.788 342.334V349.74H172.157ZM187.283 349.996C185.959 349.996 184.814 349.715 183.848 349.152C182.888 348.584 182.147 347.794 181.624 346.783C181.101 345.766 180.84 344.587 180.84 343.246C180.84 341.894 181.101 340.712 181.624 339.7C182.147 338.683 182.888 337.894 183.848 337.331C184.814 336.763 185.959 336.479 187.283 336.479C188.607 336.479 189.749 336.763 190.709 337.331C191.675 337.894 192.419 338.683 192.942 339.7C193.465 340.712 193.726 341.894 193.726 343.246C193.726 344.587 193.465 345.766 192.942 346.783C192.419 347.794 191.675 348.584 190.709 349.152C189.749 349.715 188.607 349.996 187.283 349.996ZM187.3 347.183C187.902 347.183 188.405 347.013 188.809 346.672C189.212 346.325 189.516 345.854 189.721 345.257C189.931 344.661 190.036 343.982 190.036 343.22C190.036 342.459 189.931 341.78 189.721 341.183C189.516 340.587 189.212 340.115 188.809 339.769C188.405 339.422 187.902 339.249 187.3 339.249C186.692 339.249 186.181 339.422 185.766 339.769C185.357 340.115 185.047 340.587 184.837 341.183C184.632 341.78 184.53 342.459 184.53 343.22C184.53 343.982 184.632 344.661 184.837 345.257C185.047 345.854 185.357 346.325 185.766 346.672C186.181 347.013 186.692 347.183 187.3 347.183ZM199.718 332.286V349.74H196.087V332.286H199.718ZM208.592 349.996C207.245 349.996 206.086 349.723 205.115 349.178C204.149 348.627 203.404 347.848 202.882 346.842C202.359 345.831 202.098 344.635 202.098 343.254C202.098 341.908 202.359 340.726 202.882 339.709C203.404 338.692 204.14 337.899 205.089 337.331C206.044 336.763 207.163 336.479 208.447 336.479C209.311 336.479 210.115 336.618 210.859 336.896C211.609 337.169 212.262 337.581 212.819 338.132C213.382 338.683 213.819 339.377 214.132 340.212C214.444 341.041 214.601 342.013 214.601 343.127V344.124H203.547V341.874H211.183C211.183 341.351 211.069 340.888 210.842 340.484C210.615 340.081 210.299 339.766 209.896 339.538C209.498 339.305 209.035 339.189 208.507 339.189C207.956 339.189 207.467 339.317 207.041 339.573C206.62 339.823 206.291 340.161 206.052 340.587C205.814 341.007 205.691 341.476 205.686 341.993V344.132C205.686 344.78 205.805 345.34 206.044 345.811C206.288 346.283 206.632 346.646 207.075 346.902C207.518 347.158 208.044 347.286 208.652 347.286C209.055 347.286 209.424 347.229 209.76 347.115C210.095 347.002 210.382 346.831 210.62 346.604C210.859 346.377 211.041 346.098 211.166 345.769L214.524 345.99C214.353 346.797 214.004 347.502 213.476 348.104C212.953 348.7 212.277 349.166 211.447 349.502C210.623 349.831 209.672 349.996 208.592 349.996ZM222.593 349.74V332.286H234.15V335.328H226.283V339.487H233.382V342.53H226.283V349.74H222.593ZM236.564 349.74V336.649H240.194V349.74H236.564ZM238.387 334.962C237.848 334.962 237.385 334.783 236.998 334.425C236.618 334.061 236.427 333.627 236.427 333.121C236.427 332.621 236.618 332.192 236.998 331.834C237.385 331.47 237.848 331.288 238.387 331.288C238.927 331.288 239.387 331.47 239.768 331.834C240.154 332.192 240.348 332.621 240.348 333.121C240.348 333.627 240.154 334.061 239.768 334.425C239.387 334.783 238.927 334.962 238.387 334.962ZM246.733 342.172V349.74H243.103V336.649H246.563V338.959H246.716C247.006 338.198 247.492 337.595 248.174 337.152C248.855 336.703 249.682 336.479 250.654 336.479C251.563 336.479 252.355 336.678 253.032 337.075C253.708 337.473 254.233 338.041 254.608 338.78C254.983 339.513 255.171 340.388 255.171 341.405V349.74H251.54V342.053C251.546 341.252 251.341 340.627 250.927 340.178C250.512 339.723 249.941 339.496 249.213 339.496C248.725 339.496 248.293 339.601 247.918 339.811C247.549 340.021 247.259 340.328 247.049 340.732C246.844 341.129 246.739 341.609 246.733 342.172ZM261.765 349.987C260.93 349.987 260.186 349.842 259.532 349.553C258.879 349.257 258.362 348.823 257.981 348.249C257.606 347.669 257.419 346.948 257.419 346.084C257.419 345.357 257.552 344.746 257.819 344.252C258.086 343.757 258.45 343.359 258.91 343.058C259.37 342.757 259.893 342.53 260.478 342.377C261.069 342.223 261.689 342.115 262.336 342.053C263.098 341.973 263.711 341.899 264.177 341.831C264.643 341.757 264.981 341.649 265.191 341.507C265.402 341.365 265.507 341.155 265.507 340.877V340.825C265.507 340.286 265.336 339.868 264.995 339.573C264.66 339.277 264.183 339.129 263.564 339.129C262.91 339.129 262.39 339.274 262.004 339.564C261.618 339.848 261.362 340.206 261.237 340.638L257.879 340.365C258.049 339.57 258.385 338.882 258.885 338.303C259.385 337.717 260.029 337.269 260.819 336.956C261.615 336.638 262.535 336.479 263.581 336.479C264.308 336.479 265.004 336.564 265.669 336.734C266.339 336.905 266.933 337.169 267.45 337.527C267.973 337.885 268.385 338.345 268.686 338.908C268.987 339.465 269.137 340.132 269.137 340.911V349.74H265.694V347.925H265.592C265.382 348.334 265.101 348.695 264.748 349.007C264.396 349.314 263.973 349.555 263.478 349.732C262.984 349.902 262.413 349.987 261.765 349.987ZM262.805 347.482C263.339 347.482 263.811 347.377 264.22 347.166C264.629 346.95 264.95 346.661 265.183 346.297C265.416 345.933 265.532 345.521 265.532 345.061V343.672C265.419 343.746 265.262 343.814 265.064 343.877C264.87 343.933 264.652 343.987 264.407 344.038C264.163 344.084 263.919 344.127 263.674 344.166C263.43 344.2 263.208 344.232 263.01 344.26C262.583 344.323 262.211 344.422 261.893 344.558C261.575 344.695 261.328 344.879 261.152 345.112C260.976 345.34 260.887 345.624 260.887 345.965C260.887 346.459 261.066 346.837 261.424 347.098C261.788 347.354 262.248 347.482 262.805 347.482ZM275.585 342.172V349.74H271.954V336.649H275.414V338.959H275.568C275.858 338.198 276.343 337.595 277.025 337.152C277.707 336.703 278.534 336.479 279.505 336.479C280.414 336.479 281.207 336.678 281.883 337.075C282.559 337.473 283.085 338.041 283.46 338.78C283.835 339.513 284.022 340.388 284.022 341.405V349.74H280.392V342.053C280.397 341.252 280.193 340.627 279.778 340.178C279.363 339.723 278.792 339.496 278.065 339.496C277.576 339.496 277.145 339.601 276.77 339.811C276.4 340.021 276.11 340.328 275.9 340.732C275.696 341.129 275.591 341.609 275.585 342.172ZM292.799 349.996C291.458 349.996 290.304 349.712 289.338 349.144C288.378 348.57 287.64 347.774 287.123 346.757C286.611 345.74 286.355 344.57 286.355 343.246C286.355 341.905 286.614 340.729 287.131 339.717C287.654 338.7 288.395 337.908 289.355 337.34C290.316 336.766 291.458 336.479 292.782 336.479C293.924 336.479 294.924 336.686 295.782 337.101C296.64 337.516 297.319 338.098 297.819 338.848C298.319 339.598 298.594 340.479 298.645 341.49H295.219C295.123 340.837 294.867 340.311 294.452 339.913C294.043 339.51 293.506 339.308 292.841 339.308C292.279 339.308 291.787 339.462 291.367 339.769C290.952 340.07 290.628 340.51 290.395 341.09C290.162 341.669 290.046 342.371 290.046 343.195C290.046 344.03 290.159 344.74 290.387 345.325C290.62 345.911 290.946 346.357 291.367 346.663C291.787 346.97 292.279 347.124 292.841 347.124C293.256 347.124 293.628 347.038 293.958 346.868C294.293 346.698 294.569 346.45 294.784 346.127C295.006 345.797 295.151 345.402 295.219 344.942H298.645C298.588 345.942 298.316 346.823 297.827 347.584C297.344 348.34 296.677 348.93 295.824 349.357C294.972 349.783 293.963 349.996 292.799 349.996ZM306.936 349.996C305.589 349.996 304.43 349.723 303.458 349.178C302.493 348.627 301.748 347.848 301.226 346.842C300.703 345.831 300.441 344.635 300.441 343.254C300.441 341.908 300.703 340.726 301.226 339.709C301.748 338.692 302.484 337.899 303.433 337.331C304.387 336.763 305.507 336.479 306.791 336.479C307.654 336.479 308.458 336.618 309.203 336.896C309.953 337.169 310.606 337.581 311.163 338.132C311.726 338.683 312.163 339.377 312.476 340.212C312.788 341.041 312.944 342.013 312.944 343.127V344.124H301.89V341.874H309.527C309.527 341.351 309.413 340.888 309.186 340.484C308.958 340.081 308.643 339.766 308.24 339.538C307.842 339.305 307.379 339.189 306.851 339.189C306.299 339.189 305.811 339.317 305.385 339.573C304.964 339.823 304.635 340.161 304.396 340.587C304.157 341.007 304.035 341.476 304.029 341.993V344.132C304.029 344.78 304.149 345.34 304.387 345.811C304.632 346.283 304.976 346.646 305.419 346.902C305.862 347.158 306.387 347.286 306.995 347.286C307.399 347.286 307.768 347.229 308.103 347.115C308.439 347.002 308.726 346.831 308.964 346.604C309.203 346.377 309.385 346.098 309.51 345.769L312.868 345.99C312.697 346.797 312.348 347.502 311.819 348.104C311.297 348.7 310.62 349.166 309.791 349.502C308.967 349.831 308.015 349.996 306.936 349.996ZM315.314 349.74V336.649H318.944V349.74H315.314ZM317.137 334.962C316.598 334.962 316.135 334.783 315.748 334.425C315.368 334.061 315.177 333.627 315.177 333.121C315.177 332.621 315.368 332.192 315.748 331.834C316.135 331.47 316.598 331.288 317.137 331.288C317.677 331.288 318.137 331.47 318.518 331.834C318.904 332.192 319.098 332.621 319.098 333.121C319.098 333.627 318.904 334.061 318.518 334.425C318.137 334.783 317.677 334.962 317.137 334.962ZM321.853 349.74V336.649H325.373V338.933H325.509C325.748 338.121 326.148 337.507 326.711 337.092C327.273 336.672 327.921 336.462 328.654 336.462C328.836 336.462 329.032 336.473 329.242 336.496C329.452 336.519 329.637 336.55 329.796 336.59V339.811C329.625 339.76 329.39 339.715 329.088 339.675C328.787 339.635 328.512 339.615 328.262 339.615C327.728 339.615 327.25 339.732 326.83 339.965C326.415 340.192 326.086 340.51 325.841 340.919C325.603 341.328 325.483 341.8 325.483 342.334V349.74H321.853ZM336.978 349.996C335.654 349.996 334.51 349.715 333.544 349.152C332.583 348.584 331.842 347.794 331.319 346.783C330.797 345.766 330.535 344.587 330.535 343.246C330.535 341.894 330.797 340.712 331.319 339.7C331.842 338.683 332.583 337.894 333.544 337.331C334.51 336.763 335.654 336.479 336.978 336.479C338.302 336.479 339.444 336.763 340.404 337.331C341.37 337.894 342.115 338.683 342.637 339.7C343.16 340.712 343.422 341.894 343.422 343.246C343.422 344.587 343.16 345.766 342.637 346.783C342.115 347.794 341.37 348.584 340.404 349.152C339.444 349.715 338.302 349.996 336.978 349.996ZM336.995 347.183C337.598 347.183 338.101 347.013 338.504 346.672C338.907 346.325 339.211 345.854 339.416 345.257C339.626 344.661 339.731 343.982 339.731 343.22C339.731 342.459 339.626 341.78 339.416 341.183C339.211 340.587 338.907 340.115 338.504 339.769C338.101 339.422 337.598 339.249 336.995 339.249C336.387 339.249 335.876 339.422 335.461 339.769C335.052 340.115 334.743 340.587 334.532 341.183C334.328 341.78 334.226 342.459 334.226 343.22C334.226 343.982 334.328 344.661 334.532 345.257C334.743 345.854 335.052 346.325 335.461 346.672C335.876 347.013 336.387 347.183 336.995 347.183Z" fill="white"/>
</svg>
