<svg width="456" height="456" viewBox="0 0 456 456" fill="none" xmlns="http://www.w3.org/2000/svg">
<path d="M214.938 181.75C207.744 181.75 200.844 184.674 195.757 189.878C190.67 195.082 187.813 202.14 187.813 209.5C187.813 216.86 190.67 223.918 195.757 229.122C200.844 234.326 207.744 237.25 214.938 237.25C222.132 237.25 229.031 234.326 234.118 229.122C239.205 223.918 242.063 216.86 242.063 209.5C242.063 202.14 239.205 195.082 234.118 189.878C229.031 184.674 222.132 181.75 214.938 181.75ZM201.375 209.5C201.375 205.82 202.804 202.291 205.347 199.689C207.891 197.087 211.341 195.625 214.938 195.625C218.535 195.625 221.984 197.087 224.528 199.689C227.071 202.291 228.5 205.82 228.5 209.5C228.5 213.18 227.071 216.709 224.528 219.311C221.984 221.913 218.535 223.375 214.938 223.375C211.341 223.375 207.891 221.913 205.347 219.311C202.804 216.709 201.375 213.18 201.375 209.5ZM138.083 174.812C138.083 169.293 140.227 163.999 144.042 160.096C147.857 156.193 153.032 154 158.427 154H271.448C274.12 154 276.765 154.538 279.233 155.584C281.701 156.63 283.944 158.163 285.833 160.096C287.722 162.028 289.221 164.323 290.243 166.848C291.265 169.373 291.792 172.079 291.792 174.812V218.75H278.229V195.625H271.448C266.052 195.625 260.878 193.432 257.063 189.529C253.248 185.626 251.104 180.332 251.104 174.812V167.875H178.771V174.812C178.771 180.332 176.627 185.626 172.812 189.529C168.997 193.432 163.823 195.625 158.427 195.625H151.646V223.375H158.427C163.823 223.375 168.997 225.568 172.812 229.471C176.627 233.374 178.771 238.668 178.771 244.188V251.125H246.583V265H158.427C153.032 265 147.857 262.807 144.042 258.904C140.227 255.001 138.083 249.707 138.083 244.188V174.812ZM158.427 167.875C156.629 167.875 154.904 168.606 153.632 169.907C152.36 171.208 151.646 172.973 151.646 174.812V181.75H158.427C160.226 181.75 161.95 181.019 163.222 179.718C164.494 178.417 165.208 176.652 165.208 174.812V167.875H158.427ZM278.229 181.75V174.812C278.229 172.973 277.515 171.208 276.243 169.907C274.971 168.606 273.246 167.875 271.448 167.875H264.667V174.812C264.667 178.642 267.705 181.75 271.448 181.75H278.229ZM151.646 244.188C151.646 248.017 154.684 251.125 158.427 251.125H165.208V244.188C165.208 242.348 164.494 240.583 163.222 239.282C161.95 237.981 160.226 237.25 158.427 237.25H151.646V244.188ZM159.792 278.875H246.583V292.75H183.292C173.255 292.75 164.485 287.172 159.792 278.875ZM318.917 218.75V200.25C318.917 189.982 313.465 181.01 305.354 176.209V218.75H318.917ZM269.188 228C265.591 228 262.141 229.462 259.597 232.064C257.054 234.666 255.625 238.195 255.625 241.875V315.875C255.625 319.555 257.054 323.084 259.597 325.686C262.141 328.288 265.591 329.75 269.188 329.75H314.396C317.993 329.75 321.443 328.288 323.986 325.686C326.529 323.084 327.958 319.555 327.958 315.875V241.875C327.958 238.195 326.529 234.666 323.986 232.064C321.443 229.462 317.993 228 314.396 228H269.188ZM273.708 269.625H282.75C283.949 269.625 285.099 270.112 285.947 270.98C286.795 271.847 287.271 273.023 287.271 274.25C287.271 275.477 286.795 276.653 285.947 277.52C285.099 278.388 283.949 278.875 282.75 278.875H273.708C272.509 278.875 271.359 278.388 270.512 277.52C269.664 276.653 269.188 275.477 269.188 274.25C269.188 273.023 269.664 271.847 270.512 270.98C271.359 270.112 272.509 269.625 273.708 269.625ZM300.833 269.625H309.875C311.074 269.625 312.224 270.112 313.072 270.98C313.92 271.847 314.396 273.023 314.396 274.25C314.396 275.477 313.92 276.653 313.072 277.52C312.224 278.388 311.074 278.875 309.875 278.875H300.833C299.634 278.875 298.484 278.388 297.637 277.52C296.789 276.653 296.313 275.477 296.313 274.25C296.313 273.023 296.789 271.847 297.637 270.98C298.484 270.112 299.634 269.625 300.833 269.625ZM273.708 288.125H282.75C283.949 288.125 285.099 288.612 285.947 289.48C286.795 290.347 287.271 291.523 287.271 292.75C287.271 293.977 286.795 295.153 285.947 296.02C285.099 296.888 283.949 297.375 282.75 297.375H273.708C272.509 297.375 271.359 296.888 270.512 296.02C269.664 295.153 269.188 293.977 269.188 292.75C269.188 291.523 269.664 290.347 270.512 289.48C271.359 288.612 272.509 288.125 273.708 288.125ZM300.833 288.125H309.875C311.074 288.125 312.224 288.612 313.072 289.48C313.92 290.347 314.396 291.523 314.396 292.75C314.396 293.977 313.92 295.153 313.072 296.02C312.224 296.888 311.074 297.375 309.875 297.375H300.833C299.634 297.375 298.484 296.888 297.637 296.02C296.789 295.153 296.313 293.977 296.313 292.75C296.313 291.523 296.789 290.347 297.637 289.48C298.484 288.612 299.634 288.125 300.833 288.125ZM273.708 306.625H282.75C283.949 306.625 285.099 307.112 285.947 307.98C286.795 308.847 287.271 310.023 287.271 311.25C287.271 312.477 286.795 313.653 285.947 314.52C285.099 315.388 283.949 315.875 282.75 315.875H273.708C272.509 315.875 271.359 315.388 270.512 314.52C269.664 313.653 269.188 312.477 269.188 311.25C269.188 310.023 269.664 308.847 270.512 307.98C271.359 307.112 272.509 306.625 273.708 306.625ZM300.833 306.625H309.875C311.074 306.625 312.224 307.112 313.072 307.98C313.92 308.847 314.396 310.023 314.396 311.25C314.396 312.477 313.92 313.653 313.072 314.52C312.224 315.388 311.074 315.875 309.875 315.875H300.833C299.634 315.875 298.484 315.388 297.637 314.52C296.789 313.653 296.313 312.477 296.313 311.25C296.313 310.023 296.789 308.847 297.637 307.98C298.484 307.112 299.634 306.625 300.833 306.625ZM269.188 246.5C269.188 245.273 269.664 244.097 270.512 243.23C271.359 242.362 272.509 241.875 273.708 241.875H309.875C311.074 241.875 312.224 242.362 313.072 243.23C313.92 244.097 314.396 245.273 314.396 246.5V255.75C314.396 256.977 313.92 258.153 313.072 259.02C312.224 259.888 311.074 260.375 309.875 260.375H273.708C272.509 260.375 271.359 259.888 270.512 259.02C269.664 258.153 269.188 256.977 269.188 255.75V246.5Z" fill="white"/>
</svg>
